<?xml version="1.0" encoding="UTF-8" standalone="no"?><!DOCTYPE svg PUBLIC "-//W3C//DTD SVG 1.1//EN" "http://www.w3.org/Graphics/SVG/1.1/DTD/svg11.dtd"><svg width="100%" height="100%" viewBox="0 0 812 132" version="1.1" xmlns="http://www.w3.org/2000/svg" xmlns:xlink="http://www.w3.org/1999/xlink" xml:space="preserve" xmlns:serif="http://www.serif.com/" style="fill-rule:evenodd;clip-rule:evenodd;stroke-linejoin:round;stroke-miterlimit:1.41421;"><path d="M1.9,1.9c-0.525,0.525 -0.9,3.075 -0.9,6.3c0,6.9 0.75,7.8 6.825,7.8l4.425,0l0,55.35c0,42.075 0.225,55.575 0.9,56.25c0.975,0.975 11.475,1.275 13.65,0.45c0.825,-0.3 1.2,-1.425 1.2,-3.375c0,-1.575 0.225,-2.925 0.45,-2.925c0.3,0 1.65,1.05 3.15,2.325c3.825,3.375 8.4,5.175 13.425,5.4c11.7,0.45 19.125,-6 21.975,-18.975c0.6,-2.85 0.825,-11.7 0.6,-29.25c-0.225,-24.075 -0.3,-25.275 -1.95,-29.325c-2.1,-5.325 -6.975,-10.95 -11.025,-12.75c-4.575,-2.1 -13.2,-1.95 -18,0.375c-2.025,0.975 -4.425,2.475 -5.175,3.375c-0.825,0.825 -1.725,1.575 -2.1,1.575c-0.3,0 -0.6,-9.375 -0.6,-20.85c0,-15.225 -0.225,-21.075 -0.9,-21.75c-0.6,-0.6 -4.575,-0.9 -12.975,-0.9c-8.4,0 -12.375,0.3 -12.975,0.9Zm45.075,53.85c3.825,3.3 4.275,6.3 4.275,27.975c0,21.975 -0.6,25.8 -4.725,28.35c-3.525,2.25 -9.525,1.65 -12.525,-1.2c-3.6,-3.45 -4.575,-7.5 -5.025,-22.125c-0.825,-26.1 2.4,-35.25 12.3,-35.25c2.475,0 3.75,0.525 5.7,2.25Z" style="fill:#fff;fill-rule:nonzero;stroke:#000;stroke-width:2px;"/><path d="M157.9,2.65c-1.2,1.2 -1.275,122.925 -0.15,125.175c0.675,1.275 1.65,1.425 7.35,1.425c3.6,0 7.05,-0.375 7.65,-0.75c0.975,-0.6 1.125,-8.475 1.35,-61.8c0.075,-39.075 -0.075,-61.725 -0.6,-63c-0.675,-1.875 -0.825,-1.95 -7.725,-1.95c-4.425,0 -7.275,0.3 -7.875,0.9Z" style="fill:#fff;fill-rule:nonzero;stroke:#000;stroke-width:2px;"/><path d="M479.65,2.65c-1.125,1.125 -1.275,95.625 -0.15,103.65c1.35,9 5.325,16.125 11.175,19.875c10.125,6.525 25.8,5.775 34.2,-1.575c4.275,-3.75 6.675,-7.875 8.25,-14.025c1.05,-4.05 1.2,-8.4 0.9,-29.25c-0.15,-15.9 -0.525,-25.35 -1.125,-27.075c-4.125,-12.375 -14.325,-18.45 -26.025,-15.375c-4.275,1.125 -9,3.975 -10.5,6.3c-0.525,0.825 -0.9,-5.775 -1.125,-20.925l-0.375,-22.125l-7.125,-0.225c-4.95,-0.15 -7.425,0.075 -8.1,0.75Zm33.825,53.1c3.975,3.15 4.35,5.85 4.125,29.625c-0.225,23.625 -0.45,25.05 -4.725,27.825c-2.625,1.725 -9.825,1.575 -12.3,-0.225c-4.2,-3.075 -4.875,-5.925 -5.175,-22.425c-0.45,-22.8 1.05,-30.9 6.525,-34.575c3.3,-2.25 8.85,-2.325 11.55,-0.225Z" style="fill:#fff;fill-rule:nonzero;stroke:#000;stroke-width:2px;"/><path d="M782.95,2.95c-0.225,0.675 -0.45,10.425 -0.45,21.75l0,20.55l-3.375,-2.55c-4.35,-3.375 -7.95,-4.5 -13.875,-4.5c-11.55,0 -18.75,7.8 -21.075,22.875c-1.275,8.1 -0.45,47.175 1.05,52.275c2.4,8.1 7.35,14.025 13.2,15.825c4.425,1.275 12,0.975 15.525,-0.6c1.725,-0.825 4.5,-2.7 6.225,-4.2l3.075,-2.775l0,2.925c0,1.575 0.375,3.3 0.9,3.825c1.275,1.275 12.9,1.2 14.025,-0.075c0.6,-0.75 0.9,-17.025 0.975,-56.475l0.225,-55.425l4.875,-0.225c2.7,-0.15 5.1,-0.6 5.4,-1.125c0.975,-1.5 0.675,-11.4 -0.3,-12.375c-0.6,-0.6 -4.65,-0.9 -13.425,-0.9c-10.725,0 -12.6,0.15 -12.975,1.2Zm-7.2,52.425c5.625,2.925 6.975,9.525 6.6,31.575c-0.225,14.7 -0.45,16.8 -1.8,19.8c-2.325,4.875 -4.8,6.9 -9.075,7.275c-4.8,0.375 -6.975,-0.9 -9.225,-5.4c-1.875,-3.75 -1.875,-3.9 -1.875,-24c0,-22.425 0.45,-25.275 4.2,-28.425c2.7,-2.25 7.65,-2.625 11.175,-0.825Z" style="fill:#fff;fill-rule:nonzero;stroke:#000;stroke-width:2px;"/><path d="M103.75,38.575c-7.65,1.5 -13.875,6.075 -17.25,12.675c-3.225,6.225 -3.75,11.175 -3.75,33.975c0,24.3 0.6,29.025 4.725,35.85c3.525,5.925 8.1,8.475 15.6,8.85c4.95,0.225 6.45,-0.075 9.9,-1.65c2.175,-0.975 5.25,-3.075 6.75,-4.65l2.775,-2.85l0,3.75c0,4.575 0.225,4.725 8.25,4.725c4.125,0 6.075,-0.3 6.675,-1.05c0.675,-0.825 0.825,-9.6 0.675,-34.35c-0.225,-31.275 -0.375,-33.525 -1.8,-37.8c-3.3,-9.675 -9.3,-15.15 -18.75,-17.175c-5.7,-1.2 -8.775,-1.275 -13.8,-0.3Zm14.25,18.45c3.075,3.375 3.75,8.175 3.75,25.275c0,15.825 -0.6,21.375 -2.85,25.875c-3.675,7.575 -14.325,8.175 -17.85,1.05c-1.275,-2.625 -1.425,-4.8 -1.425,-24.975c0,-20.175 0.15,-22.35 1.425,-24.975c1.95,-3.975 4.35,-5.1 10.125,-4.8c4.275,0.225 5.025,0.525 6.825,2.55Z" style="fill:#fff;fill-rule:nonzero;stroke:#000;stroke-width:2px;"/><path d="M213.25,38.575c-7.65,1.5 -13.875,6.075 -17.25,12.675c-3.225,6.225 -3.75,11.175 -3.75,33.975c0,24.3 0.6,29.025 4.725,35.85c3.525,5.925 8.1,8.475 15.6,8.85c4.95,0.225 6.45,-0.075 9.9,-1.65c2.175,-0.975 5.25,-3.075 6.75,-4.65l2.775,-2.85l0,3.75c0,4.575 0.225,4.725 8.25,4.725c4.125,0 6.075,-0.3 6.675,-1.05c0.675,-0.825 0.825,-9.6 0.675,-34.35c-0.225,-31.275 -0.375,-33.525 -1.8,-37.8c-3.3,-9.675 -9.3,-15.15 -18.75,-17.175c-5.7,-1.2 -8.775,-1.275 -13.8,-0.3Zm14.25,18.45c3.075,3.375 3.75,8.175 3.75,25.275c0,15.825 -0.6,21.375 -2.85,25.875c-3.675,7.575 -14.325,8.175 -17.85,1.05c-1.275,-2.625 -1.425,-4.8 -1.425,-24.975c0,-20.175 0.15,-22.35 1.425,-24.975c1.95,-3.975 4.35,-5.1 10.125,-4.8c4.275,0.225 5.025,0.525 6.825,2.55Z" style="fill:#fff;fill-rule:nonzero;stroke:#000;stroke-width:2px;"/><path d="M287.5,38.5c-10.425,2.175 -16.65,7.8 -19.95,18c-1.2,3.675 -1.35,7.95 -1.65,36.9c-0.15,22.875 0,33.225 0.6,34.275c0.75,1.425 1.5,1.575 7.35,1.575c3.6,0 6.9,-0.3 7.425,-0.6c0.675,-0.375 0.975,-8.925 1.125,-32.775c0.225,-31.2 0.3,-32.325 1.875,-35.775c1.95,-4.275 4.725,-5.85 10.125,-5.85c4.95,0 8.475,2.025 10.2,5.85c1.125,2.4 1.275,6.675 1.5,35.025c0.15,21.3 0.525,32.55 1.05,33.15c1.125,1.425 13.65,1.35 14.775,-0.075c0.675,-0.825 0.825,-9.525 0.675,-34.725c-0.3,-28.95 -0.45,-34.125 -1.575,-37.35c-2.7,-8.25 -8.625,-14.4 -15.9,-16.575c-4.875,-1.425 -13.35,-1.95 -17.625,-1.05Z" style="fill:#fff;fill-rule:nonzero;stroke:#000;stroke-width:2px;"/><path d="M360.25,38.725c-2.25,0.525 -5.4,1.575 -6.9,2.325c-4.125,1.95 -9.15,7.8 -11.175,12.9c-1.65,4.275 -1.725,5.325 -2.025,27.825c-0.15,15.15 0,24.825 0.525,27.375c2.025,9.525 7.35,16.425 14.925,19.425c3.375,1.35 5.85,1.725 11.775,1.725c9.075,0.075 13.8,-1.35 18.6,-5.55c4.125,-3.675 6.3,-8.625 7.35,-16.725c0.9,-6.9 0.45,-10.65 -1.275,-11.325c-2.175,-0.825 -12.75,-0.45 -13.65,0.45c-0.525,0.525 -0.9,2.4 -0.9,4.275c0,8.325 -2.85,12.15 -9.225,12.675c-4.875,0.375 -8.175,-1.05 -10.05,-4.575c-1.2,-2.175 -1.35,-4.8 -1.35,-25.275c0,-21.375 0.075,-23.025 1.5,-25.275c2.55,-4.35 8.25,-5.85 13.5,-3.675c3.675,1.575 5.1,4.8 5.4,12.45c0.45,10.575 -0.15,9.825 8.25,9.6l7.275,-0.225l0.75,-2.475c1.125,-3.9 -0.45,-18.525 -2.475,-23.1c-2.25,-5.025 -7.05,-9.75 -11.775,-11.55c-5.1,-1.875 -13.8,-2.475 -19.05,-1.275Z" style="fill:#fff;fill-rule:nonzero;stroke:#000;stroke-width:2px;"/><path d="M430.075,38.5c-8.1,1.725 -15,7.65 -18.225,15.6c-1.65,4.125 -1.725,5.325 -1.95,28.8c-0.3,27.075 0.15,30.675 4.2,37.35c2.325,3.75 7.725,7.725 12.375,9.15c4.95,1.5 16.65,1.2 21.45,-0.45c5.7,-1.95 10.8,-7.125 12.375,-12.375c1.275,-4.35 1.575,-11.775 0.6,-13.425c-0.45,-0.675 -2.55,-0.9 -7.65,-0.75l-7.05,0.225l-0.9,4.8c-1.05,6.15 -2.625,7.575 -8.25,7.575c-2.175,0 -4.8,-0.375 -5.85,-0.9c-2.925,-1.275 -4.875,-6.075 -5.4,-13.575l-0.525,-6.525l17.7,0c16.725,0 17.775,-0.075 18.525,-1.425c0.975,-1.875 0.975,-25.725 0,-32.625c-2.025,-13.575 -9.75,-20.85 -23.1,-21.75c-2.775,-0.225 -6.525,-0.075 -8.325,0.3Zm10.65,15.825c3.75,1.725 4.65,4.65 4.875,16.2l0.3,10.725l-10.35,0l-10.275,0l0.45,-9.225c0.6,-11.025 1.35,-14.1 4.35,-16.575c2.475,-2.1 7.35,-2.625 10.65,-1.125Z" style="fill:#fff;fill-rule:nonzero;stroke:#000;stroke-width:2px;"/><path d="M571.75,38.575c-10.5,2.1 -17.175,8.85 -19.875,20.325c-1.35,5.625 -1.575,42.9 -0.375,49.35c1.8,9.525 6.9,16.5 14.4,19.95c4.125,1.8 5.7,2.1 11.85,2.1c8.25,0.075 12,-0.9 16.95,-4.275c4.35,-2.925 7.8,-7.8 9.75,-13.725c1.275,-3.975 1.425,-6.675 1.425,-27.675c0,-25.95 -0.375,-28.65 -5.25,-36.075c-5.325,-8.175 -17.175,-12.225 -28.875,-9.975Zm14.25,18.45c3.375,3.75 3.9,8.4 3.6,30.075c-0.225,18.75 -0.3,19.35 -2.025,22.425c-2.025,3.6 -4.5,4.875 -9.3,4.875c-4.275,0 -7.65,-1.8 -9.3,-4.875c-1.2,-2.175 -1.35,-4.8 -1.35,-24.9c0,-20.55 0.15,-22.725 1.425,-25.35c1.95,-3.975 4.35,-5.1 10.125,-4.8c4.275,0.225 5.025,0.525 6.825,2.55Z" style="fill:#fff;fill-rule:nonzero;stroke:#000;stroke-width:2px;"/><path d="M695.575,38.5c-8.1,1.725 -15,7.65 -18.225,15.6c-1.65,4.125 -1.725,5.325 -1.95,28.8c-0.3,27.075 0.15,30.675 4.2,37.35c2.325,3.75 7.725,7.725 12.375,9.15c4.95,1.5 16.65,1.2 21.45,-0.45c5.7,-1.95 10.8,-7.125 12.375,-12.375c1.275,-4.35 1.575,-11.775 0.6,-13.425c-0.45,-0.675 -2.55,-0.9 -7.65,-0.75l-7.05,0.225l-0.9,4.8c-1.05,6.15 -2.625,7.575 -8.25,7.575c-2.175,0 -4.8,-0.375 -5.85,-0.9c-2.925,-1.275 -4.875,-6.075 -5.4,-13.575l-0.525,-6.525l17.7,0c16.725,0 17.775,-0.075 18.525,-1.425c0.975,-1.875 0.975,-25.725 0,-32.625c-2.025,-13.575 -9.75,-20.85 -23.1,-21.75c-2.775,-0.225 -6.525,-0.075 -8.325,0.3Zm10.65,15.825c3.75,1.725 4.65,4.65 4.875,16.2l0.3,10.725l-10.35,0l-10.275,0l0.45,-9.225c0.6,-11.025 1.35,-14.1 4.35,-16.575c2.475,-2.1 7.35,-2.625 10.65,-1.125Z" style="fill:#fff;fill-rule:nonzero;stroke:#000;stroke-width:2px;"/><path d="M638.875,39.55c-5.1,1.575 -7.8,3.375 -10.125,6.6c-4.65,6.375 -4.725,7.275 -5.1,45.375c-0.15,24.375 0,35.1 0.6,36.15c0.75,1.425 1.5,1.575 7.35,1.575c3.6,0 6.9,-0.3 7.425,-0.6c0.675,-0.375 0.975,-9 1.125,-33.15c0.225,-31.8 0.3,-32.7 1.875,-35.625c2.475,-4.65 3.975,-5.25 12.6,-5.25l7.5,0l0,-14.25l-3.375,-0.9c-4.5,-1.125 -16.125,-1.125 -19.875,0.075Z" style="fill:#fff;fill-rule:nonzero;stroke:#000;stroke-width:2px;"/></svg>