<?xml version="1.0" encoding="UTF-8" standalone="no"?><!DOCTYPE svg PUBLIC "-//W3C//DTD SVG 1.1//EN" "http://www.w3.org/Graphics/SVG/1.1/DTD/svg11.dtd"><svg width="100%" height="100%" viewBox="0 0 221 384" version="1.1" xmlns="http://www.w3.org/2000/svg" xmlns:xlink="http://www.w3.org/1999/xlink" xml:space="preserve" xmlns:serif="http://www.serif.com/" style="fill-rule:evenodd;clip-rule:evenodd;stroke-linejoin:round;stroke-miterlimit:1.41421;"><path id="Board" d="M189.878,293.302c-1.827,-1.564 -173.871,11.712 -176.927,13.549c-1.728,1.094 -1.832,2.489 -1.206,10.545c0.396,5.088 1.305,9.922 1.901,10.729c0.955,1.312 12.102,0.658 87.491,-4.886c55.233,-4.19 87.228,-6.892 88.973,-7.774c2.575,-1.16 2.665,-1.38 1.906,-11.132c-0.486,-6.254 -1.224,-10.249 -2.138,-11.031Z" style="fill-rule:nonzero;"/><path id="Goat" d="M82.677,4.34c0.053,0.586 6.26,4.581 13.99,8.878c7.581,4.31 17.971,11.458 23.154,15.696l9.406,7.83l-12.806,2.229c-7.077,1.102 -13.237,2.414 -13.492,2.881c-1.361,1.456 4.176,9.499 7.955,11.507c2.049,1.138 6.634,2.186 10.085,2.305l6.149,0.166l1.148,13.913c2.213,25.324 -4.081,50.852 -16.667,68.26c-14.969,20.729 -45.02,33.715 -86.527,37.735c-10.515,1.129 -18.927,2.356 -18.871,2.942c0.246,2.633 7.33,8.023 12.077,9.204c4.139,1.089 5.274,2.018 4.736,4.281c-0.307,1.504 -1.065,11.019 -1.633,20.96c-1.016,19.575 18.228,17.633 11.806,25.76l-3.595,4.761l9.425,25.033c5.377,20.75 10.224,39.041 10.684,40.768c1.029,3.004 1.946,3.212 10.102,2.453l9.046,-0.845l-6.817,-12.294c-1.098,-6.981 -4.744,-20.206 -6.455,-32.148l-3.668,-12.068l10.283,-8.202c1.111,-0.889 1.602,-2.032 1.863,-2.568c0.715,-1.461 0.274,-1.753 2.868,-4.663c3.239,-3.631 6.642,-1.285 0.856,5.662l-7.202,9.379l10.685,19.307c5.967,17.448 11.269,32.596 11.796,33.433c0.406,1.142 3.638,2.118 8.086,1.703c8.75,-0.817 4.615,3.128 -3.604,-40.083c-3.9,-20.5 -2.45,-11.913 -2.167,-12.087c0.283,-0.174 9.404,-11.239 12.627,-17.164c2.507,-4.603 17.277,-10.706 14.871,1.539c-0.924,4.699 -2.287,9.672 -1.292,16.332c3.439,24.03 -3.132,36.457 -2.222,41.389l1.748,9.134l12.606,-1.174l-0.123,-12.534c-0.21,-18.281 14.469,-70.354 12.928,-49.992c-1.651,19.192 0.341,39.898 3.889,53.883l1.694,6.926l6.82,-0.635c6.525,-0.61 6.66,-0.77 5.55,-4.651c-1.739,-5.674 -2.243,-43.289 -0.879,-60.938c0.153,-1.984 0.33,-3.714 0.532,-5.121c1.137,-7.042 28.488,-47.733 25.555,-79.188c-1.598,-17.118 -3.704,-31.68 -5.478,-37.86l-3.03,-10.047c0,0 -5.018,-5.35 -1.632,-6.307c4.359,-0.133 4.78,-0.038 10.051,0.355l9.371,1.045l0.021,5.331c0.545,5.853 7.494,6.796 9.683,7.323c0.579,0.14 -3.862,-1.739 -2.302,-5.868c2.754,-7.34 5.436,-5.474 9.819,-4.998c2.56,0.204 5.285,0.539 6.039,0.617c0.741,-0.069 2.21,-1.976 3.178,-4.428c1.694,-4.291 1.462,-5.154 -4.845,-15.046c-8.968,-14.363 -18.933,-26.569 -30.932,-38.139c-8.691,-8.193 -11.539,-9.846 -19.185,-11.64c-5.353,-1.272 -12.852,-4.705 -19.073,-8.848c-14.652,-9.553 -31.825,-17.249 -45.552,-20.1c-13.433,-2.879 -13.284,-2.892 -13.133,-1.284Zm85.703,56.054c1.042,4.773 -3.93,7.597 -7.816,4.418c-3.885,-3.178 -1.992,-8.52 2.957,-8.393c3.141,0.003 4.276,0.93 4.859,3.975Z" style="fill-rule:nonzero;"/><circle id="Ball" cx="97.071" cy="350.921" r="32.866"/></svg>