<?xml version="1.0" encoding="UTF-8" standalone="no"?><!DOCTYPE svg PUBLIC "-//W3C//DTD SVG 1.1//EN" "http://www.w3.org/Graphics/SVG/1.1/DTD/svg11.dtd"><svg width="100%" height="100%" viewBox="0 0 500 250" version="1.1" xmlns="http://www.w3.org/2000/svg" xmlns:xlink="http://www.w3.org/1999/xlink" xml:space="preserve" xmlns:serif="http://www.serif.com/" style="fill-rule:evenodd;clip-rule:evenodd;stroke-linejoin:round;stroke-miterlimit:1.41421;"><path d="M44.57,1.381c0.053,0.373 4.147,2.743 9.226,5.26c4.985,2.53 11.852,6.791 15.298,9.348l6.259,4.727l-8.131,1.814c-4.497,0.921 -8.401,1.948 -8.55,2.254c-0.827,0.973 2.962,5.954 5.441,7.126c1.347,0.666 4.314,1.198 6.527,1.17l3.941,-0.081l1.157,8.872c2.184,16.146 -1.073,32.68 -8.603,44.205c-8.955,13.724 -27.8,22.948 -54.251,26.779c-6.697,1.041 -12.045,2.082 -11.992,2.455c0.237,1.678 4.935,4.914 8.01,5.526c2.684,0.572 3.438,1.131 3.163,2.597c-0.152,0.972 -0.349,7.087 -0.412,13.469c-0.057,12.562 12.204,10.736 8.339,16.132l-2.157,3.158l6.792,15.74c4.07,13.121 7.728,24.684 8.075,25.776c0.749,1.892 1.342,1.998 6.541,1.264l5.765,-0.814l-4.736,-7.665c-0.915,-4.436 -3.649,-12.792 -5.107,-20.385l-2.713,-7.615l6.335,-5.562c0.684,-0.603 0.963,-1.35 1.114,-1.701c0.413,-0.956 0.124,-1.131 1.695,-3.071c1.964,-2.423 4.213,-1.024 0.72,3.598l-4.326,6.223l7.425,12.036c4.348,10.99 8.201,20.527 8.564,21.047c0.294,0.719 2.393,1.245 5.228,0.845c5.577,-0.788 3.049,1.863 -3.522,-25.552c-3.117,-13.005 -1.929,-7.552 -1.753,-7.672c0.176,-0.12 5.679,-7.481 7.565,-11.371c1.464,-3.022 10.734,-7.377 9.565,0.535c-0.448,3.036 -1.17,6.261 -0.332,10.495c2.929,15.279 -0.9,23.434 -0.169,26.564l1.397,5.795l8.034,-1.135l-0.458,-8.019c-0.688,-11.697 7.131,-45.479 6.761,-32.397c-0.475,12.337 1.427,25.534 4.123,34.379l1.293,4.382l4.348,-0.614c4.159,-0.587 4.24,-0.694 3.412,-3.145c-1.286,-3.58 -2.747,-27.645 -2.409,-38.985c0.038,-1.275 0.099,-2.388 0.185,-3.294c0.516,-4.543 16.794,-31.421 13.962,-51.47c-1.541,-10.911 -3.33,-20.169 -4.653,-24.072l-2.245,-6.34c0,0 -3.374,-3.273 -1.236,-3.988c2.788,-0.217 3.059,-0.169 6.446,-0.077l6.031,0.385l0.174,3.412c0.527,3.73 5.005,4.124 6.422,4.395c0.374,0.071 -2.525,-0.996 -1.652,-3.687c1.542,-4.783 3.314,-3.67 6.134,-3.497c1.646,0.053 3.4,0.185 3.886,0.212c0.473,-0.067 1.354,-1.333 1.9,-2.932c0.954,-2.797 0.781,-3.344 -3.557,-9.484c-6.177,-8.924 -12.925,-16.436 -20.957,-23.481c-5.813,-4.981 -7.685,-5.953 -12.635,-6.871c-3.466,-0.651 -8.372,-2.622 -12.479,-5.085c-9.67,-5.673 -20.896,-10.079 -29.771,-11.489c-8.686,-1.436 -8.592,-1.45 -8.447,-0.424Zm56.565,33.29c0.812,3.024 -2.285,4.983 -4.87,3.065c-2.584,-1.918 -1.533,-5.395 1.639,-5.462c2.011,-0.094 2.765,0.465 3.231,2.397Z" style="fill-rule:nonzero;"/><path d="M131.541,192.45c-0.156,-1.102 -1.177,-1.871 -2.279,-1.715l-119.214,16.836c-1.102,0.156 -1.871,1.177 -1.715,2.279l0.564,3.994c0.156,1.103 1.177,1.871 2.279,1.715l119.214,-16.836c1.102,-0.155 1.871,-1.177 1.715,-2.279l-0.564,-3.994Z"/><circle cx="60.856" cy="230.7" r="17.943"/><text x="143.483px" y="105.563px" style="font-family:'FiraSans-Ultra', 'Fira Sans', sans-serif;font-weight:950;font-size:96px;">Balanc<tspan x="438.299px " y="105.563px ">e</tspan></text><text x="167.715px" y="194.029px" style="font-family:'FiraSans-UltraItalic', 'Fira Sans', sans-serif;font-weight:950;font-style:italic;font-size:96px;">BORED</text></svg>