<?xml version="1.0" encoding="UTF-8" standalone="no"?><!DOCTYPE svg PUBLIC "-//W3C//DTD SVG 1.1//EN" "http://www.w3.org/Graphics/SVG/1.1/DTD/svg11.dtd"><svg width="100%" height="100%" viewBox="0 0 101 187" version="1.1" xmlns="http://www.w3.org/2000/svg" xmlns:xlink="http://www.w3.org/1999/xlink" xml:space="preserve" xmlns:serif="http://www.serif.com/" style="fill-rule:evenodd;clip-rule:evenodd;stroke-linejoin:round;stroke-miterlimit:1.41421;"><rect id="Artboard1" x="0" y="0" width="100.875" height="186.985" style="fill:none;"/><path d="M33.428,1.036c0.039,0.28 3.11,2.057 6.919,3.945c3.738,1.897 8.889,5.093 11.474,7.01l4.694,3.546l-6.098,1.361c-3.373,0.69 -6.301,1.46 -6.413,1.69c-0.62,0.73 2.221,4.466 4.081,5.344c1.01,0.5 3.235,0.899 4.895,0.878l2.956,-0.06l0.867,6.654c1.638,12.109 -0.804,24.509 -6.452,33.153c-6.716,10.293 -20.85,17.211 -40.688,20.084c-5.023,0.781 -9.034,1.561 -8.994,1.841c0.178,1.259 3.702,3.686 6.008,4.145c2.012,0.429 2.578,0.849 2.371,1.948c-0.113,0.729 -0.261,5.315 -0.308,10.101c-0.043,9.422 9.153,8.052 6.254,12.1l-1.618,2.368l5.094,11.805c3.053,9.841 5.796,18.513 6.056,19.332c0.562,1.419 1.007,1.498 4.906,0.948l4.324,-0.611l-3.552,-5.748c-0.686,-3.327 -2.737,-9.594 -3.83,-15.289l-2.035,-5.711l4.751,-4.172c0.513,-0.452 0.723,-1.012 0.836,-1.275c0.31,-0.718 0.092,-0.848 1.271,-2.304c1.473,-1.817 3.16,-0.768 0.54,2.699l-3.245,4.667l5.569,9.027c3.261,8.242 6.151,15.395 6.423,15.785c0.221,0.539 1.795,0.934 3.921,0.634c4.183,-0.591 2.287,1.397 -2.641,-19.164c-2.338,-9.754 -1.447,-5.664 -1.315,-5.754c0.132,-0.09 4.26,-5.61 5.673,-8.528c1.099,-2.267 8.052,-5.533 7.175,0.401c-0.337,2.277 -0.878,4.696 -0.249,7.871c2.197,11.46 -0.676,17.576 -0.127,19.923l1.047,4.346l6.026,-0.85l-0.344,-6.015c-0.516,-8.773 5.349,-34.109 5.072,-24.297c-0.357,9.252 1.07,19.149 3.091,25.783l0.971,3.287l3.26,-0.46c3.119,-0.441 3.18,-0.521 2.559,-2.359c-0.964,-2.685 -2.06,-20.734 -1.806,-29.239c0.028,-0.956 0.074,-1.791 0.139,-2.471c0.386,-3.407 12.594,-23.566 10.471,-38.602c-1.156,-8.183 -2.498,-15.127 -3.49,-18.054l-1.683,-4.755c0,0 -2.531,-2.455 -0.927,-2.991c2.09,-0.163 2.294,-0.127 4.834,-0.058l4.523,0.289l0.131,2.559c0.395,2.798 3.753,3.093 4.816,3.296c0.281,0.054 -1.894,-0.747 -1.239,-2.765c1.156,-3.587 2.486,-2.752 4.601,-2.623c1.234,0.04 2.55,0.139 2.914,0.159c0.354,-0.05 1.016,-0.999 1.425,-2.198c0.716,-2.099 0.585,-2.508 -2.668,-7.114c-4.632,-6.693 -9.694,-12.327 -15.718,-17.61c-4.359,-3.736 -5.764,-4.465 -9.476,-5.153c-2.599,-0.489 -6.278,-1.967 -9.359,-3.815c-7.252,-4.254 -15.672,-7.559 -22.328,-8.616c-6.515,-1.077 -6.444,-1.087 -6.335,-0.318Zm42.423,24.967c0.609,2.268 -1.714,3.737 -3.652,2.299c-1.938,-1.438 -1.15,-4.046 1.229,-4.097c1.508,-0.07 2.074,0.349 2.423,1.798Z" style="fill-rule:nonzero;"/><path d="M98.656,144.338c-0.117,-0.827 -0.883,-1.403 -1.71,-1.287l-89.41,12.627c-0.827,0.117 -1.403,0.883 -1.286,1.71l0.423,2.995c0.117,0.827 0.882,1.403 1.709,1.287l89.411,-12.627c0.826,-0.117 1.403,-0.883 1.286,-1.71l-0.423,-2.995Z"/><circle cx="45.642" cy="173.025" r="13.457"/></svg>